<svg width="49" height="44" viewBox="0 0 49 44" fill="none" xmlns="http://www.w3.org/2000/svg">
<g id="Group">
<g id="Group_2">
<g id="Group_3">
<path id="Vector" d="M7.06483 15.9692L2.35625 8.56989L10.3859 2.00039H18.957C19.3527 4.75739 21.7148 6.80469 24.4999 6.80469C27.2854 6.80469 29.6476 4.75739 30.0433 2.00039H38.5905L46.6408 9.31879L41.9394 16.0387L39.4065 13.9676C39.1679 13.7723 38.8382 13.7316 38.5593 13.8633C38.2804 13.9945 38.1015 14.2746 38.0999 14.5828V42.0004H10.9V14.2914C10.9004 13.975 10.7137 13.6879 10.4238 13.5598C10.134 13.4316 9.79611 13.4863 9.56171 13.6996L7.06483 15.9692ZM10.1 43.6004H38.8999C39.3421 43.6004 39.6999 43.2422 39.6999 42.8004V16.2707L41.5937 17.8195C41.7659 17.9606 41.989 18.0234 42.2093 17.993C42.4296 17.9625 42.6276 17.8418 42.7554 17.6598L48.3553 9.65979C48.5861 9.33009 48.5361 8.88009 48.2385 8.60939L39.4386 0.60939C39.2913 0.474991 39.0991 0.400391 38.8999 0.400391H29.2999C28.8581 0.400391 28.4999 0.758591 28.4999 1.20039C28.4999 3.40939 26.7093 5.20039 24.4999 5.20039C22.291 5.20039 20.5 3.40939 20.5 1.20039C20.5 0.758591 20.1422 0.400391 19.7 0.400391H10.1C9.91561 0.400391 9.73671 0.464491 9.59381 0.581291L0.793856 7.78129C0.480157 8.03749 0.407458 8.48829 0.625057 8.83009L6.22503 17.6301C6.35203 17.8289 6.56053 17.9617 6.79453 17.9926C7.02853 18.0234 7.26453 17.9492 7.43872 17.7899L9.30002 16.0996V42.8004C9.30002 43.2422 9.65821 43.6004 10.1 43.6004Z" fill="#00A3FF"/>
</g>
<g id="Group_4">
<path id="Vector_2" d="M17.3004 27.6016C17.4859 27.6039 17.6695 27.6387 17.843 27.7047C18.0961 27.7965 18.3785 27.7547 18.5942 27.5938C18.8102 27.4325 18.9304 27.1735 18.9141 26.9047C18.9141 26.8848 18.903 26.8246 18.9004 26.8024C18.8988 26.0903 19.3691 25.4629 20.0534 25.2653C20.7374 25.0676 21.4698 25.3469 21.8483 25.9504C22.0769 26.311 22.5476 26.4289 22.9191 26.2184C23.1562 26.0789 23.4253 26.0043 23.7003 26.0016C24.5843 26.0016 25.3003 26.718 25.3003 27.6016C25.2991 27.9961 25.1503 28.3758 24.8835 28.6664C24.6097 28.9707 24.6097 29.4325 24.8835 29.7368C25.1503 30.0274 25.2991 30.4071 25.3003 30.8016C25.3003 31.6852 24.5843 32.4016 23.7003 32.4016C23.3062 32.4 22.9265 32.2516 22.6358 31.9848C22.3315 31.711 21.8694 31.711 21.5651 31.9848C21.2745 32.2516 20.8948 32.4 20.5003 32.4016C20.0585 32.4016 19.7003 32.7598 19.7003 33.2016C19.7003 34.0852 18.9843 34.8016 18.1004 34.8016C17.2168 34.8016 16.5004 34.0852 16.5004 33.2016C16.5004 32.7567 16.6887 32.3325 17.018 32.0336C17.2223 31.8446 17.3133 31.5625 17.2586 31.2899C17.2039 31.0168 17.0113 30.7918 16.75 30.6961C16.0215 30.4313 15.5887 29.6809 15.7246 28.9176C15.8606 28.1543 16.5254 27.5989 17.3004 27.6016ZM14.9004 33.2016C14.8961 34.8321 16.1184 36.2055 17.7383 36.3899C19.3585 36.5746 20.8581 35.5114 21.2206 33.9215C21.5296 33.8481 21.8261 33.7289 22.1003 33.5688C22.5858 33.8528 23.1382 34.002 23.7003 34.0016C25.4679 34.0016 26.9003 32.5688 26.9003 30.8016C26.8999 30.2391 26.7495 29.6868 26.4644 29.2016C26.7495 28.7164 26.8999 28.1641 26.9003 27.6016C26.9003 25.8344 25.4679 24.4016 23.7003 24.4016C23.3831 24.4016 23.0679 24.4504 22.7651 24.5465C22.1675 23.9403 21.3515 23.6 20.5003 23.6016C19.0417 23.6032 17.768 24.5895 17.4012 26.0016C16.027 25.9536 14.7762 26.7907 14.2965 28.0793C13.8168 29.3684 14.216 30.8196 15.2879 31.6817C15.0328 32.1477 14.8996 32.6704 14.9004 33.2016Z" fill="#00A3FF"/>
</g>
<g id="Group_5">
<path id="Vector_3" d="M28.7789 36.1991C28.6039 36.0498 28.5024 35.8315 28.5004 35.6014C28.5004 35.1596 28.8586 34.8014 29.3004 34.8014C29.393 34.803 29.484 34.8209 29.5703 34.8541C29.8906 34.9694 30.2488 34.8694 30.4629 34.6045C30.9297 34.026 31.7348 33.8463 32.4031 34.1721C33.0719 34.4979 33.4266 35.2424 33.2586 35.9666C33.0902 36.6912 32.4442 37.2034 31.7004 37.2014C31.5149 37.1994 31.3309 37.1643 31.1574 37.0975C30.8942 37.017 30.6078 37.0772 30.3996 37.2573C30.1836 37.4412 30.0719 37.7194 30.1004 38.0014C30.1004 38.4432 29.7426 38.8014 29.3004 38.8014C28.8586 38.8014 28.5004 38.4432 28.5004 38.0014C28.5024 37.7713 28.6039 37.553 28.7789 37.4037C28.9527 37.2518 29.0527 37.0323 29.0527 36.8014C29.0527 36.5705 28.9527 36.351 28.7789 36.1991ZM27.2277 36.8014C27.0141 37.1651 26.9012 37.5795 26.9004 38.0014C26.8988 39.1717 27.7414 40.1725 28.8949 40.3705C30.0484 40.5682 31.1762 39.9053 31.5645 38.8014C33.332 38.8389 34.7949 37.4366 34.8324 35.6694C34.8699 33.9022 33.468 32.4389 31.7004 32.4014C30.9164 32.4018 30.1598 32.6932 29.5781 33.219C28.6762 33.1104 27.7909 33.5221 27.2925 34.2819C26.7944 35.0412 26.7692 36.0174 27.2277 36.8014Z" fill="#00A3FF"/>
</g>
<g id="Group_6">
<path id="Vector_4" d="M30.1 30.8029C30.1 31.2447 29.7422 31.6029 29.3 31.6029C28.8582 31.6029 28.5 31.2447 28.5 30.8029C28.5 30.3611 28.8582 30.0029 29.3 30.0029C29.7422 30.0029 30.1 30.3611 30.1 30.8029Z" fill="#00A3FF"/>
</g>
<g id="Group_7">
<path id="Vector_5" d="M23.6996 38.801C23.6996 39.2428 23.3418 39.601 22.8996 39.601C22.4578 39.601 22.0996 39.2428 22.0996 38.801C22.0996 38.3592 22.4578 38.001 22.8996 38.001C23.3418 38.001 23.6996 38.3592 23.6996 38.801Z" fill="#00A3FF"/>
</g>
</g>
</g>
</svg>
