<svg width="43" height="38" viewBox="0 0 43 38" fill="none" xmlns="http://www.w3.org/2000/svg">
<g id="Group">
<path id="Vector" d="M17.5 26L23.5 28C23.5 28 38.5 25 40.5 25C42.5 25 42.5 27 40.5 29C38.5 31 31.5 37 25.5 37C19.5 37 15.5 34 11.5 34H1.5" stroke="#00A3FF" stroke-width="2" stroke-linecap="round" stroke-linejoin="round"/>
<path id="Vector_2" d="M1.5 22C3.5 20 7.5 17 11.5 17C15.5 17 25 21 26.5 23C28 25 23.5 28 23.5 28M13.5 11V3C13.5 2.46957 13.7107 1.96086 14.0858 1.58579C14.4609 1.21071 14.9696 1 15.5 1H39.5C40.0304 1 40.5391 1.21071 40.9142 1.58579C41.2893 1.96086 41.5 2.46957 41.5 3V19" stroke="#00A3FF" stroke-width="2" stroke-linecap="round" stroke-linejoin="round"/>
<path id="Vector_3" d="M22.5 1H32.5V10H22.5V1Z" stroke="#00A3FF" stroke-width="2" stroke-linecap="round" stroke-linejoin="round"/>
</g>
</svg>
