<svg width="49" height="48" viewBox="0 0 49 48" fill="none" xmlns="http://www.w3.org/2000/svg">
<g id="Clip path group">
<mask id="mask0_838_13" style="mask-type:luminance" maskUnits="userSpaceOnUse" x="0" y="0" width="49" height="48">
<g id="__lottie_element_934">
<path id="Vector" d="M48.5 0H0.5V48H48.5V0Z" fill="white"/>
</g>
</mask>
<g mask="url(#mask0_838_13)">
<g id="Group">
<g id="Group_2">
<g id="Group_3">
<path id="Vector_2" d="M26.537 41.8282C17.0873 41.8282 9.42685 34.1678 9.42685 24.7181C9.42685 15.2688 17.0873 7.60809 26.537 7.60809C35.987 7.60809 43.6475 15.2688 43.6475 24.7181C43.6373 34.1638 35.9826 41.8181 26.537 41.8282ZM1.98799 30.6694V18.7668H8.92121C7.61196 22.6267 7.61196 26.8099 8.92121 30.6694H1.98799ZM26.537 6.1201C19.1409 6.12884 12.4508 10.5131 9.49083 17.2916C9.4687 17.2916 9.44907 17.2789 9.42685 17.2789H1.98799V3.14439C1.98799 2.73352 1.65487 2.40039 1.244 2.40039C0.833125 2.40039 0.5 2.73352 0.5 3.14439V46.2918C0.5 46.7031 0.833125 47.0359 1.244 47.0359C1.65487 47.0359 1.98799 46.7031 1.98799 46.2918V32.1574H9.42685C9.44907 32.1574 9.4687 32.1464 9.49083 32.145C13.201 40.6629 22.6284 45.1362 31.5731 42.6227C40.5175 40.1095 46.2351 31.3804 44.9651 22.1767C43.6958 12.9727 35.8282 6.11796 26.537 6.1201Z" fill="#00A3FF"/>
</g>
<g id="Group_4">
<path id="Vector_3" d="M39.9188 28.9952C39.9933 28.7827 40.0679 28.5691 40.1289 28.3526C39.8169 28.4068 39.5007 28.4354 39.1839 28.438C37.1677 28.438 35.4644 27.4157 35.4644 26.2063C35.4644 25.7954 35.1313 25.4623 34.7204 25.4623C34.3096 25.4623 33.9763 25.7954 33.9763 26.2063C33.859 27.0299 33.2814 27.7139 32.4887 27.9671V22.7948L32.7068 23.0123C32.8749 23.1827 33.1157 23.2605 33.3518 23.2209C33.5876 23.1828 33.7911 23.033 33.8982 22.8193L35.3863 19.8434C35.5294 19.5568 35.4727 19.2113 35.2463 18.9853L32.2707 16.0098C32.1312 15.8699 31.9421 15.7918 31.7448 15.7914H28.7692C28.3583 15.7914 28.0251 16.1242 28.0251 16.5351C28.0251 17.3572 27.359 18.0231 26.5372 18.0231C25.7158 18.0231 25.0496 17.3572 25.0496 16.5351C25.0496 16.1242 24.7165 15.7914 24.3056 15.7914H21.33C21.1326 15.7918 20.9434 15.8699 20.8039 16.0098L17.8283 18.9853C17.602 19.2113 17.5453 19.5568 17.6884 19.8434L19.1764 22.8193C19.2836 23.0326 19.4863 23.1817 19.7217 23.2202C19.9575 23.2583 20.1971 23.1812 20.3664 23.0123L20.586 22.7948V28.3904C18.9123 28.1771 17.6102 27.2635 17.6102 26.2063C17.6102 25.7954 17.2771 25.4623 16.8662 25.4623C16.4553 25.4623 16.1222 25.7954 16.1222 26.2063C16.1222 27.302 14.7211 28.2356 12.96 28.4031C12.5938 27.209 12.406 25.9677 12.403 24.7183C12.403 17.3351 18.7434 11.3278 26.5372 11.3278C34.3313 11.3278 40.6716 17.3351 40.6716 24.7183C40.6687 26.1769 40.4137 27.6234 39.9188 28.9952ZM31.46 20.3113C31.1821 20.4265 31.0007 20.6979 31.0007 20.9987V28.3904C30.754 28.4224 30.5056 28.4383 30.2567 28.438C28.2409 28.438 26.5372 27.4157 26.5372 26.2063C26.5372 25.7954 26.2044 25.4623 25.7935 25.4623C25.3826 25.4623 25.0496 25.7954 25.0496 26.2063C25.0496 27.2635 23.7476 28.1771 22.074 28.3904V20.9987C22.074 20.6979 21.8925 20.4269 21.6146 20.3118C21.3368 20.1966 21.0168 20.2602 20.8039 20.473L20.0456 21.2308L19.2596 19.6597L21.64 17.2791H23.6581C23.9974 18.5931 25.1829 19.5114 26.5393 19.5114C27.8966 19.5114 29.0816 18.5931 29.4209 17.2791H31.4388L33.8195 19.6597L33.0332 21.2333L32.2751 20.4752C32.0622 20.2594 31.7397 20.1947 31.46 20.3113ZM26.5372 38.1088C20.938 38.1752 15.8239 34.94 13.4852 29.8519C14.7821 29.7091 15.9834 29.1013 16.8662 28.1404C18.0269 29.352 19.6541 30.0026 21.33 29.9256C23.0057 30.0019 24.6324 29.3516 25.7935 28.1404C26.9541 29.3516 28.5812 30.0019 30.2567 29.9256C31.9325 30.0019 33.5594 29.3516 34.7204 28.1404C35.8814 29.3516 37.5082 30.0019 39.1839 29.9256C39.3126 29.9256 39.4382 29.9189 39.5643 29.9128C37.2096 34.9671 32.1132 38.1741 26.5372 38.1088ZM12.96 28.4031C13.0203 28.6025 13.087 28.7998 13.1557 28.9985C13.0856 28.8005 13.0206 28.6021 12.96 28.4031ZM26.5372 9.83984C17.9235 9.83984 10.915 16.5144 10.915 24.7183C10.915 32.9226 17.9235 39.5967 26.5372 39.5967C35.1513 39.5967 42.1597 32.9226 42.1597 24.7183C42.1597 16.5144 35.1513 9.83984 26.5372 9.83984Z" fill="#00A3FF"/>
</g>
<g id="Group_5">
<path id="Vector_4" d="M17.6101 23.23C17.6101 23.6412 17.2769 23.9739 16.8661 23.9739C16.4552 23.9739 16.1221 23.6412 16.1221 23.23C16.1221 22.8195 16.4552 22.4863 16.8661 22.4863C17.2769 22.4863 17.6101 22.8195 17.6101 23.23Z" fill="#00A3FF"/>
</g>
</g>
</g>
</g>
</g>
</svg>
