<svg width="49" height="48" viewBox="0 0 49 48" fill="none" xmlns="http://www.w3.org/2000/svg">
<g id="Clip path group">
<mask id="mask0_838_378" style="mask-type:luminance" maskUnits="userSpaceOnUse" x="0" y="0" width="49" height="48">
<g id="__lottie_element_934">
<path id="Vector" d="M48.5 0H0.5V48H48.5V0Z" fill="white"/>
</g>
</mask>
<g mask="url(#mask0_838_378)">
<g id="Group">
<g id="Clip path group_2">
<mask id="mask1_838_378" style="mask-type:luminance" maskUnits="userSpaceOnUse" x="22" y="-13" width="35" height="43">
<g id="__lottie_element_937">
<path id="Vector_2" d="M22.4414 -9.27414L51.9231 29.3555L56.309 26.2478L26.8272 -12.3818L22.4414 -9.27414Z" fill="white"/>
</g>
</mask>
<g mask="url(#mask1_838_378)">
<g id="Group_2">
<g id="Group_3">
<path id="Vector_3" d="M35.3827 9.69304V40.8828C35.3827 42.7705 33.7945 44.3008 31.8353 44.3008H6.29442C4.33522 44.3008 2.74707 42.7705 2.74707 40.8828V9.69304C2.74707 7.80525 4.33522 6.27499 6.29442 6.27499H9.63726C9.63726 6.27499 14.1456 2.61734 18.8242 2.53223C24.8637 2.9576 27.2454 6.27499 27.2454 6.27499H31.8353C33.7945 6.27499 35.3827 7.80525 35.3827 9.69304Z" fill="#F1FBFF"/>
</g>
</g>
</g>
</g>
<g id="Clip path group_3">
<mask id="mask2_838_378" style="mask-type:luminance" maskUnits="userSpaceOnUse" x="24" y="-15" width="39" height="47">
<g id="__lottie_element_940">
<path id="Vector_4" d="M24.9707 -7.18831L39.3334 11.5453L54.3546 31.4285L62.9 24.2291L33.4184 -14.4004L24.9707 -7.18831Z" fill="white"/>
</g>
</mask>
<g mask="url(#mask2_838_378)">
<g id="Group_4">
<g id="Group_5">
<path id="Vector_5" d="M35.3817 9.69304V40.8828C35.3817 42.7705 33.7936 44.3008 31.8344 44.3008H6.29344C4.33424 44.3008 2.74609 42.7705 2.74609 40.8828V9.69304C2.74609 7.80525 4.33424 6.27499 6.29344 6.27499H9.63629C9.63629 6.27499 14.1446 2.61734 18.8232 2.53223C24.8627 2.9576 27.2444 6.27499 27.2444 6.27499H31.8344C33.7936 6.27499 35.3817 7.80525 35.3817 9.69304Z" fill="#F1FBFF"/>
</g>
</g>
</g>
</g>
<g id="Group_6">
<g id="Group_7">
<path id="Vector_6" d="M9.89201 6.44519H5.55373C5.55373 6.44519 2.91674 6.19 2.91674 9.08219C2.91674 11.9744 2.91674 41.5767 2.91674 41.5767C2.91674 41.5767 2.49142 44.639 5.97905 44.639C9.46669 44.639 32.0087 44.639 32.0087 44.639C32.0087 44.639 34.986 44.639 34.986 41.6618C34.986 38.6845 34.986 28.8171 34.986 28.8171" stroke="#00A3FF" stroke-width="1.5" stroke-linecap="round" stroke-linejoin="round"/>
</g>
</g>
<g id="Group_8">
<g id="Group_9">
<path id="Vector_7" d="M34.8158 17.503V9.20926C34.8158 9.20926 35.156 6.57227 32.1788 6.57227C29.2015 6.57227 28.0957 6.57227 28.0957 6.57227" stroke="#00A3FF" stroke-width="1.5" stroke-linecap="round" stroke-linejoin="round"/>
</g>
</g>
<g id="Group_10">
<g id="Group_11">
<path id="Vector_8" d="M23.5015 3.51048C23.7141 3.97834 24.0119 7.84876 22.6934 10.6984C21.9929 12.2122 19.0781 14.4412 19.0781 14.4412L22.906 18.822C22.906 18.822 25.2027 16.823 26.904 13.5906C28.6053 10.3582 27.7121 6.5728 27.7121 6.5728C27.7121 6.5728 23.2888 3.04263 23.5015 3.51048Z" stroke="#00A3FF" stroke-width="1.5" stroke-linejoin="round"/>
</g>
</g>
<g id="Group_12">
<g id="Group_13">
<path id="Vector_9" d="M14.2722 3.29785L9.97644 6.70042C9.97644 6.70042 9.40719 9.65657 10.1891 12.4423C10.8696 14.8666 14.7826 19.2474 14.7826 19.2049C14.7826 19.1623 18.653 14.7815 18.653 14.7815C18.653 14.7815 15.2501 12.0789 14.655 10.0605C13.6767 6.74295 14.2722 3.29785 14.2722 3.29785Z" stroke="#00A3FF" stroke-width="1.5" stroke-linecap="round" stroke-linejoin="round"/>
</g>
</g>
<g id="Group_14">
<g id="Group_15">
<path id="Vector_10" d="M14.0605 3.59526C14.0605 3.59526 14.8261 2.61702 18.9517 2.65955C21.6789 2.68762 23.1199 3.46766 23.5027 3.72285" stroke="#00A3FF" stroke-width="1.5" stroke-linecap="round" stroke-linejoin="round"/>
</g>
<g id="Group_16">
<path id="Vector_11" d="M14.5283 6.74259C14.5283 6.74259 18.739 5.12637 22.8646 6.82766" stroke="#00A3FF" stroke-width="1.5" stroke-linejoin="round"/>
</g>
</g>
<g id="Group_17">
<g id="Group_18">
<path id="Vector_12" d="M15.3359 21.0332L15.4635 44.3408" stroke="#00A3FF" stroke-width="1.5" stroke-linecap="round" stroke-linejoin="round"/>
</g>
</g>
<g id="Group_19">
<g id="Group_20">
<path id="Vector_13" d="M18.8248 19.6152C19.6308 19.6152 20.2852 20.2697 20.2852 21.0757C20.2852 21.8818 19.6308 22.5362 18.8248 22.5362C18.0187 22.5362 17.3643 21.8818 17.3643 21.0757C17.3643 20.2697 18.0187 19.6152 18.8248 19.6152Z" fill="#00A3FF"/>
</g>
</g>
<g id="Group_21">
<g id="Group_22">
<path id="Vector_14" d="M18.8248 26.123C19.6308 26.123 20.2852 26.7775 20.2852 27.5835C20.2852 28.3896 19.6308 29.044 18.8248 29.044C18.0187 29.044 17.3643 28.3896 17.3643 27.5835C17.3643 26.7775 18.0187 26.123 18.8248 26.123Z" fill="#00A3FF"/>
</g>
</g>
<g id="Group_23">
<g id="Group_24">
<path id="Vector_15" d="M18.8248 32.5459C19.6308 32.5459 20.2852 33.2003 20.2852 34.0064C20.2852 34.8124 19.6308 35.4669 18.8248 35.4669C18.0187 35.4669 17.3643 34.8124 17.3643 34.0064C17.3643 33.2003 18.0187 32.5459 18.8248 32.5459Z" fill="#00A3FF"/>
</g>
</g>
<g id="Group_25">
<g id="Group_26">
<path id="Vector_16" d="M18.8248 38.7549C19.6308 38.7549 20.2852 39.4093 20.2852 40.2154C20.2852 41.0214 19.6308 41.6759 18.8248 41.6759C18.0187 41.6759 17.3643 41.0214 17.3643 40.2154C17.3643 39.4093 18.0187 38.7549 18.8248 38.7549Z" fill="#00A3FF"/>
</g>
</g>
<g id="Group_27">
<g id="Group_28">
<path id="Vector_17" d="M37.1954 27.4561L35.6307 24.5142L32.7696 22.9051L35.6307 21.296L37.1954 18.3542L38.76 21.296L41.6211 22.9051L38.76 24.5142L37.1954 27.4561Z" stroke="#00A3FF" stroke-width="1.5" stroke-linecap="round" stroke-linejoin="round"/>
</g>
</g>
<g id="Group_29">
<g id="Group_30">
<path id="Vector_18" d="M44.9281 16.8818L43.8458 14.847L41.8669 13.7341L43.8458 12.6211L44.9281 10.5863L46.0103 12.6211L47.9893 13.7341L46.0103 14.847L44.9281 16.8818Z" stroke="#00A3FF" stroke-width="1.5" stroke-linecap="round" stroke-linejoin="round"/>
</g>
</g>
</g>
</g>
</g>
</svg>
